Coordinates
version=1
nRows=20
nColumns=20
inDegrees=yes

Units are S.I. units (second, meters, Newtons, ...)
Angles are in degrees.

endheader
time	thorax_tilt	thorax_list	thorax_rotation	thorax_tx	thorax_ty	thorax_tz	sternoclavicular_r1	sternoclavicular_r2	sternoclavicular_r3	Acromioclavicular_r1	Acromioclavicular_r2	Acromioclavicular_r3	shoulder_r1	shoulder_r2	shoulder_r3	elbow_flexion	pro_sup	hand_r_Add	hand_r_Flex
      0.00000000	     -6.74575841	      4.90843019	     89.69693775	     -0.74820124	      0.72070031	     -0.28959460	     19.79746416	      0.00000000	      0.00000000	      0.00000000	      0.00000000	      0.00000000	    -70.30559903	    -56.01217518	    -55.22327847	     19.46035487	      0.00000000	      0.00000000	      0.00000000
      0.00195122	     -6.70498351	      4.88135261	     89.65445510	     -0.74836863	      0.72069757	     -0.28996783	     19.88196440	      0.00000000	      0.00000000	      0.00000000	      0.00000000	      0.00000000	    -70.25692359	    -55.96189660	    -55.12744520	     19.39462034	      0.00000000	      0.00000000	      0.00000000
      0.00390244	     -6.72744925	      4.85754927	     89.65261503	     -0.74843017	      0.72063582	     -0.29006473	     19.81004507	      0.00000000	      0.00000000	      0.00000000	      0.00000000	      0.00000000	    -70.21142869	    -56.05208593	    -55.15084617	     19.38460756	      0.00000000	      0.00000000	      0.00000000
      0.00585366	     -6.73111509	      4.84818106	     89.60532278	     -0.74855647	      0.72060809	     -0.29030709	     19.78849031	      0.00000000	      0.00000000	      0.00000000	      0.00000000	      0.00000000	    -70.24649627	    -56.10729683	    -55.18255827	     19.34636085	      0.00000000	      0.00000000	      0.00000000
      0.00780488	     -6.66105934	      4.84832707	     89.59079193	     -0.74872069	      0.72063454	     -0.29054331	     19.89639791	      0.00000000	      0.00000000	      0.00000000	      0.00000000	      0.00000000	    -70.20576623	    -56.01637044	    -55.12036699	     19.30071832	      0.00000000	      0.00000000	      0.00000000
      0.00975610	     -6.65915114	      4.82642266	     89.54145672	     -0.74888264	      0.72061630	     -0.29075896	     19.85899306	      0.00000000	      0.00000000	      0.00000000	      0.00000000	      0.00000000	    -70.22194542	    -56.10780482	    -55.14379965	     19.25255406	      0.00000000	      0.00000000	      0.00000000
      0.01170732	     -6.62981073	      4.83935594	     89.49231676	     -0.74899357	      0.72060499	     -0.29093660	     19.86177316	      0.00000000	      0.00000000	      0.00000000	      0.00000000	      0.00000000	    -70.25441225	    -56.14717503	    -55.20723718	     19.24624935	      0.00000000	      0.00000000	      0.00000000
      0.01365854	     -6.66732651	      4.83425368	     89.44010470	     -0.74904066	      0.72062728	     -0.29107779	     19.80313007	      0.00000000	      0.00000000	      0.00000000	      0.00000000	      0.00000000	    -70.37612761	    -56.26354004	    -55.34891831	     19.24834470	      0.00000000	      0.00000000	      0.00000000
      0.01560976	     -6.66074094	      4.82941660	     89.41091542	     -0.74910960	      0.72063356	     -0.29122731	     19.79990065	      0.00000000	      0.00000000	      0.00000000	      0.00000000	      0.00000000	    -70.36724236	    -56.27247867	    -55.36484356	     19.24117858	      0.00000000	      0.00000000	      0.00000000
      0.01756098	     -6.65623912	      4.83797033	     89.36866755	     -0.74918586	      0.72066856	     -0.29140044	     19.78374871	      0.00000000	      0.00000000	      0.00000000	      0.00000000	      0.00000000	    -70.38355515	    -56.28452524	    -55.39975410	     19.18761540	      0.00000000	      0.00000000	      0.00000000
      0.01951220	     -6.64631062	      4.84480964	     89.32940126	     -0.74927260	      0.72066043	     -0.29155161	     19.76116581	      0.00000000	      0.00000000	      0.00000000	      0.00000000	      0.00000000	    -70.41163826	    -56.30252899	    -55.45446219	     19.16451875	      0.00000000	      0.00000000	      0.00000000
      0.02146341	     -6.64993508	      4.84465252	     89.29431085	     -0.74929514	      0.72065947	     -0.29168894	     19.72908728	      0.00000000	      0.00000000	      0.00000000	      0.00000000	      0.00000000	    -70.41028726	    -56.32228764	    -55.48688329	     19.14932086	      0.00000000	      0.00000000	      0.00000000
      0.02341463	     -6.64683152	      4.83525237	     89.27569041	     -0.74934866	      0.72068954	     -0.29182410	     19.71958355	      0.00000000	      0.00000000	      0.00000000	      0.00000000	      0.00000000	    -70.43442313	    -56.32644119	    -55.54759729	     19.17241735	      0.00000000	      0.00000000	      0.00000000
      0.02536585	     -6.67243045	      4.80512037	     89.21941344	     -0.74936487	      0.72072171	     -0.29200288	     19.69086442	      0.00000000	      0.00000000	      0.00000000	      0.00000000	      0.00000000	    -70.59004800	    -56.42240115	    -55.67632797	     19.17171120	      0.00000000	      0.00000000	      0.00000000
      0.02731707	     -6.67963371	      4.79094660	     89.18568281	     -0.74934796	      0.72069429	     -0.29217323	     19.66404241	      0.00000000	      0.00000000	      0.00000000	      0.00000000	      0.00000000	    -70.76919079	    -56.52275044	    -55.85045528	     19.16905170	      0.00000000	      0.00000000	      0.00000000
      0.02926829	     -6.67539131	      4.80640070	     89.14499321	     -0.74934361	      0.72069486	     -0.29228255	     19.65396270	      0.00000000	      0.00000000	      0.00000000	      0.00000000	      0.00000000	    -70.90678562	    -56.55594249	    -55.99083649	     19.16977077	      0.00000000	      0.00000000	      0.00000000
      0.03121951	     -6.79113051	      4.78076276	     89.09165503	     -0.74930246	      0.72062012	     -0.29246900	     19.45191505	      0.00000000	      0.00000000	      0.00000000	      0.00000000	      0.00000000	    -70.79180960	    -56.61078927	    -55.93937974	     19.19342804	      0.00000000	      0.00000000	      0.00000000
      0.03317073	     -6.72651953	      4.80224253	     89.06783817	     -0.74932855	      0.72064507	     -0.29257114	     19.54527596	      0.00000000	      0.00000000	      0.00000000	      0.00000000	      0.00000000	    -70.99598768	    -56.58371011	    -56.09370194	     19.15255502	      0.00000000	      0.00000000	      0.00000000
      0.03512195	     -6.74675741	      4.79473178	     89.02867403	     -0.74934633	      0.72062428	     -0.29266976	     19.52877248	      0.00000000	      0.00000000	      0.00000000	      0.00000000	      0.00000000	    -70.96431587	    -56.52419570	    -56.02466995	     19.15542509	      0.00000000	      0.00000000	      0.00000000
      0.03707317	     -6.74123881	      4.78399326	     89.02795515	     -0.74932196	      0.72062326	     -0.29275899	     19.57293688	      0.00000000	      0.00000000	      0.00000000	      0.00000000	      0.00000000	    -70.94061824	    -56.40008741	    -55.95781813	     19.13575407	      0.00000000	      0.00000000	      0.00000000
